<?xml version="1.0" encoding="UTF-8"?>
<svg version="1.1" xmlns="http://www.w3.org/2000/svg" width="64" height="64">
<path d="M0 0 C21.12 0 42.24 0 64 0 C64 21.12 64 42.24 64 64 C42.88 64 21.76 64 0 64 C0 42.88 0 21.76 0 0 Z " fill="#040121" transform="translate(0,0)"/>
<path d="M0 0 C7.70604179 3.51565962 16.35844433 10.165644 20 18 C19.375 21 19.375 21 18 23 C18.66386719 22.77183594 19.32773437 22.54367188 20.01171875 22.30859375 C20.89472656 22.02113281 21.77773438 21.73367187 22.6875 21.4375 C23.55761719 21.14746094 24.42773438 20.85742188 25.32421875 20.55859375 C28 20 28 20 33 21 C33 30.57 33 40.14 33 50 C17.82 50 2.64 50 -13 50 C-8 40 -8 40 -6 37 C-5.93453102 34.48952515 -5.93453102 34.48952515 -7 32 C-7.721875 31.4225 -8.44375 30.845 -9.1875 30.25 C-13.09337092 27.12530327 -15.37895718 23.21528535 -18 19 C-13.56697244 10.6265035 -7.48555755 5.65901628 0 0 Z " fill="#180060" transform="translate(31,14)"/>
<path d="M0 0 C8.41091475 3.8372376 14.99156455 10.34483036 20 18 C15.64450783 25.4893219 9.93689855 32.9597334 2.0625 36.9921875 C-3.16163334 37.01197588 -8.265945 31.3606495 -12 28 C-14.319306 25.1457987 -16.25622826 22.23515547 -18 19 C-13.56697244 10.6265035 -7.48555755 5.65901628 0 0 Z " fill="#0C0339" transform="translate(31,14)"/>
<path d="M0 0 C0 2.64 0 5.28 0 8 C-1.155 8.04125 -2.31 8.0825 -3.5 8.125 C-7.15721886 8.55413076 -9.02326997 9.56405581 -11.8125 11.9375 C-15.850246 15.29830634 -19.33001049 15.76010887 -24.44140625 16.43359375 C-28.3320121 17.29487291 -30.18623947 19.25838718 -33 22 C-33.66 22 -34.32 22 -35 22 C-35.66 24.31 -36.32 26.62 -37 29 C-39.97 29 -42.94 29 -46 29 C-45.21085079 27.39459341 -44.41858235 25.79071984 -43.625 24.1875 C-43.18414062 23.29417969 -42.74328125 22.40085937 -42.2890625 21.48046875 C-41 19 -41 19 -39 16 C-38.83286431 13.37468476 -38.83286431 13.37468476 -39 11 C-38.113125 11.70125 -37.22625 12.4025 -36.3125 13.125 C-33.24994116 15.36790099 -33.24994116 15.36790099 -30.578125 14.359375 C-27.79409775 12.89143336 -25.74945188 11.25601652 -23.4375 9.125 C-22.69371094 8.44695313 -21.94992188 7.76890625 -21.18359375 7.0703125 C-18.98159285 5.03538826 -18.98159285 5.03538826 -17.03125 2.82421875 C-14.67556438 0.70863186 -13.15448514 0.23538643 -10.0625 -0.3125 C-8.81146484 -0.55419922 -8.81146484 -0.55419922 -7.53515625 -0.80078125 C-4.81570354 -1.01448246 -2.63670919 -0.65563967 0 0 Z " fill="#0F0047" transform="translate(64,35)"/>
<path d="M0 0 C8.41091475 3.8372376 14.99156455 10.34483036 20 18 C15.64450783 25.4893219 9.93689855 32.9597334 2.0625 36.9921875 C-3.16163334 37.01197588 -8.265945 31.3606495 -12 28 C-14.319306 25.1457987 -16.25622826 22.23515547 -18 19 C-13.56697244 10.6265035 -7.48555755 5.65901628 0 0 Z M-10 11 C-11.91450101 13.26105527 -13.42500968 15.48001549 -15 18 C-11.00657797 24.90627103 -6.55430315 29.47024827 0 34 C8.101428 30.05541825 12.42784833 25.68724401 17 18 C10.04312473 9.92828056 10.04312473 9.92828056 2 3 C-2.51563947 3 -6.7943774 8.10638463 -10 11 Z " fill="#A872E7" transform="translate(31,14)"/>
<path d="M0 0 C2.14576637 -0.02685938 4.29162645 -0.04633088 6.4375 -0.0625 C7.63246094 -0.07410156 8.82742187 -0.08570312 10.05859375 -0.09765625 C13 0 13 0 14 1 C13.71269945 3.33944736 13.38063221 5.6739143 13 8 C13.66 8 14.32 8 15 8 C14.125 12.875 14.125 12.875 13 14 C10.98035801 14.07244053 8.95832876 14.08377188 6.9375 14.0625 C5.28041016 14.04896484 5.28041016 14.04896484 3.58984375 14.03515625 C2.73519531 14.02355469 1.88054688 14.01195312 1 14 C1.76717106 10.64978508 2.47070057 8.44208221 5 6 C8.1875 5.75 8.1875 5.75 11 6 C11 5.01 11 4.02 11 3 C7.37 3 3.74 3 0 3 C0 2.01 0 1.02 0 0 Z " fill="#5424BE" transform="translate(24,25)"/>
<path d="M0 0 C0.27585937 0.58007812 0.55171875 1.16015625 0.8359375 1.7578125 C4.49408621 8.80404525 9.45414638 13.6139458 16 18 C18.54107512 16.7997475 20.41119503 15.66712783 22.625 13.875 C25 12 25 12 27 12 C27.268125 11.401875 27.53625 10.80375 27.8125 10.1875 C28.98493467 8.02775192 30.19369282 6.64209744 32 5 C32.495 6.485 32.495 6.485 33 8 C24.01998177 18.70604771 24.01998177 18.70604771 18 22 C8.75274897 19.35368057 2.63540746 12.0165282 -2 4 C-1.34 2.68 -0.68 1.36 0 0 Z " fill="#3E0CCC" transform="translate(15,29)"/>
<path d="M0 0 C0.66 0.33 1.32 0.66 2 1 C2 3.97 2 6.94 2 10 C-5.26 10 -12.52 10 -20 10 C-20.33 9.34 -20.66 8.68 -21 8 C-19.93072266 7.99613281 -19.93072266 7.99613281 -18.83984375 7.9921875 C-12.50147506 7.73626413 -8.8905179 7.00613861 -4.4375 2.375 C-3 1 -3 1 0 0 Z " fill="#1F0078" transform="translate(62,54)"/>
<path d="M0 0 C2.14576637 -0.02685938 4.29162645 -0.04633088 6.4375 -0.0625 C7.63246094 -0.07410156 8.82742187 -0.08570312 10.05859375 -0.09765625 C13 0 13 0 14 1 C14.1875 3.4375 14.1875 3.4375 14 6 C12 8 12 8 8.875 8.125 C7.92625 8.08375 6.9775 8.0425 6 8 C6 7.34 6 6.68 6 6 C7.65 6 9.3 6 11 6 C11 5.01 11 4.02 11 3 C7.37 3 3.74 3 0 3 C0 2.01 0 1.02 0 0 Z " fill="#A069E5" transform="translate(24,25)"/>
<path d="M0 0 C0.26941406 0.57492188 0.53882813 1.14984375 0.81640625 1.7421875 C2.02481381 4.04733459 3.38066808 6.0413013 4.9375 8.125 C5.69353516 9.14980469 5.69353516 9.14980469 6.46484375 10.1953125 C8.06079743 12.23867961 8.06079743 12.23867961 11 14 C11 14.66 11 15.32 11 16 C6.70499883 15.52277765 4.75379572 13.16686508 2 10 C0.53747346 7.71391483 -0.72802292 5.40262338 -2 3 C-1.34 2.01 -0.68 1.02 0 0 Z " fill="#4E19D1" transform="translate(15,29)"/>
<path d="M0 0 C4.77135213 3.57851409 7.29076328 6.68572797 10 12 C9.01 13.485 9.01 13.485 8 15 C7.34 15 6.68 15 6 15 C5.95875 14.34 5.9175 13.68 5.875 13 C4.5948343 8.61086045 1.85190633 5.51473471 -1 2 C-0.67 1.34 -0.34 0.68 0 0 Z " fill="#763DDF" transform="translate(41,21)"/>
<path d="M0 0 C3.95677402 1.67401978 6.84464213 4.13149285 10 7 C10 7.66 10 8.32 10 9 C5.31441048 7.35371179 5.31441048 7.35371179 3.5 5.3125 C3.005 4.879375 2.51 4.44625 2 4 C-0.65466049 4.23043864 -0.65466049 4.23043864 -3 5 C-2.01 3.35 -1.02 1.7 0 0 Z " fill="#B17BEB" transform="translate(31,14)"/>
<path d="M0 0 C0.66 0.99 1.32 1.98 2 3 C0.02 5.31 -1.96 7.62 -4 10 C-4.66 9.67 -5.32 9.34 -6 9 C-4.02 6.03 -2.04 3.06 0 0 Z " fill="#5720D9" transform="translate(46,34)"/>
<path d="M0 0 C0.66 0.33 1.32 0.66 2 1 C1.01 2.485 1.01 2.485 0 4 C2.31 4 4.62 4 7 4 C7 4.33 7 4.66 7 5 C3.37 5 -0.26 5 -4 5 C-2 1 -2 1 0 0 Z " fill="#150A44" transform="translate(28,20)"/>
<path d="M0 0 C3.125 0.375 3.125 0.375 6 1 C6.33 1.99 6.66 2.98 7 4 C4.66666667 4 2.33333333 4 0 4 C-0.66 3.34 -1.32 2.68 -2 2 C-1.34 1.34 -0.68 0.68 0 0 Z " fill="#17074D" transform="translate(30,12)"/>
<path d="M0 0 C1.41377341 2.63904371 2.37240135 5.07120629 3 8 C1.0625 7.1875 1.0625 7.1875 -1 6 C-1.33 5.01 -1.66 4.02 -2 3 C-1.34 2.01 -0.68 1.02 0 0 Z " fill="#6E35E0" transform="translate(15,29)"/>
<path d="M0 0 C1.65 1.32 3.3 2.64 5 4 C4.67 4.99 4.34 5.98 4 7 C2.35 5.35 0.7 3.7 -1 2 C-0.67 1.34 -0.34 0.68 0 0 Z " fill="#965EE4" transform="translate(41,21)"/>
<path d="M0 0 C1.32 0.66 2.64 1.32 4 2 C4 2.66 4 3.32 4 4 C1.69 4.33 -0.62 4.66 -3 5 C-2.01 3.35 -1.02 1.7 0 0 Z " fill="#DAAEF9" transform="translate(31,14)"/>
<path d="M0 0 C0.99 0.66 1.98 1.32 3 2 C1 4 1 4 -2.125 4.125 C-3.548125 4.063125 -3.548125 4.063125 -5 4 C-5 3.34 -5 2.68 -5 2 C-3.35 2 -1.7 2 0 2 C0 1.34 0 0.68 0 0 Z " fill="#894AF1" transform="translate(35,29)"/>
<path d="M0 0 C0.66 1.32 1.32 2.64 2 4 C0.35 5.32 -1.3 6.64 -3 8 C-2.45276317 4.62537285 -1.9451 2.91765 0 0 Z " fill="#8E53E7" transform="translate(19,23)"/>
</svg>
